<svg width="514" height="510" viewBox="0 0 514 510" fill="none" xmlns="http://www.w3.org/2000/svg">
<g clip-path="url(#clip0_9_6)">
<path d="M506.802 254.902C506.802 395.167 392.991 509.609 253.302 509.609C113.811 509.609 0 395.167 0 254.902C0 114.442 113.811 0 253.302 0C392.991 0 506.802 114.442 506.802 254.902ZM190.464 135.374C178.207 135.374 170.814 142.808 170.814 155.328V350.76C170.814 363.28 178.207 370.714 190.464 370.714H265.56C317.7 370.714 351.163 345.281 351.163 304.786C351.163 273.486 330.344 251.38 296.882 247.077V245.707C321.591 239.643 337.154 219.102 337.154 193.475C337.154 158.458 308.749 135.374 265.754 135.374H190.464ZM315.558 303.808C315.558 330.806 294.937 343.717 251.358 343.717H205.444V262.336H264.005C296.298 262.336 315.558 277.594 315.558 303.808ZM302.914 199.148C302.914 222.624 283.07 236.905 249.023 236.905H205.444V162.37H258.751C286.572 162.37 302.914 176.064 302.914 199.148Z" fill="#230B74" fill-opacity="0.85"/>
</g>
<defs>
<clipPath id="clip0_9_6">
<rect width="514" height="510" fill="white"/>
</clipPath>
</defs>
</svg>
